<?xml version="1.0" standalone="no"?>
<!DOCTYPE svg PUBLIC "-//W3C//DTD SVG 20010904//EN"
 "http://www.w3.org/TR/2001/REC-SVG-20010904/DTD/svg10.dtd">
<svg version="1.0" xmlns="http://www.w3.org/2000/svg"
 width="219.000000pt" height="219.000000pt" viewBox="0 0 219.000000 219.000000"
 preserveAspectRatio="xMidYMid meet">
<metadata>
Created by potrace 1.14, written by Peter Selinger 2001-2017
</metadata>
<g transform="translate(0.000000,219.000000) scale(0.100000,-0.100000)"
fill="#000000" stroke="none">
<path d="M233 1910 c-63 -15 -85 -86 -39 -129 21 -20 34 -22 140 -23 97 -1
121 -4 140 -19 31 -25 72 -139 156 -433 69 -241 89 -289 130 -311 11 -6 142
-10 334 -9 301 0 317 1 344 21 15 11 32 31 38 44 7 13 31 140 54 282 37 222
41 261 30 288 -7 16 -22 35 -34 41 -15 8 -145 12 -429 12 l-409 1 -42 104
c-27 65 -52 111 -66 120 -17 11 -57 15 -174 16 -83 0 -161 -2 -173 -5z m880
-362 c7 -7 21 -32 31 -56 24 -54 32 -60 96 -72 91 -17 95 -34 28 -104 l-39
-41 6 -77 c6 -69 5 -77 -12 -80 -10 -3 -39 6 -65 19 -58 28 -81 29 -124 3 -70
-44 -97 -29 -83 44 14 70 10 83 -36 137 -25 29 -45 58 -45 65 0 14 40 31 96
39 38 6 44 11 69 58 33 62 44 77 57 77 5 0 15 -6 21 -12z"/>
<path d="M1076 1451 c-24 -46 -54 -69 -98 -76 l-40 -7 25 -27 c35 -35 47 -72
41 -120 l-5 -40 35 14 c44 19 84 19 116 0 14 -8 27 -14 30 -15 3 0 5 27 5 60
0 51 4 63 28 88 15 15 27 31 27 34 0 3 -20 11 -45 17 -38 10 -51 19 -75 57
l-29 46 -15 -31z"/>
<path d="M785 914 c-108 -54 -84 -204 36 -226 35 -7 87 25 105 63 45 100 -49
209 -141 163z m73 -76 c21 -21 14 -57 -14 -70 -23 -11 -29 -10 -45 10 -15 19
-16 28 -7 48 12 26 46 32 66 12z"/>
<path d="M1347 920 c-55 -17 -92 -82 -80 -142 7 -35 56 -84 91 -91 94 -18 170
112 110 188 -17 22 -77 58 -90 54 -2 0 -16 -5 -31 -9z m63 -85 c17 -21 4 -62
-22 -71 -42 -13 -70 53 -34 78 18 12 43 9 56 -7z"/>
<path d="M405 572 c-31 -6 -55 -33 -55 -61 1 -36 18 -56 63 -70 26 -9 37 -18
37 -32 0 -22 -17 -24 -43 -5 -21 16 -57 10 -57 -10 0 -17 37 -42 70 -47 30 -5
79 21 82 43 0 8 2 22 3 30 2 23 -23 48 -61 60 -23 8 -34 18 -34 31 0 22 4 23
33 7 25 -14 67 -19 67 -8 0 4 -9 19 -20 32 -20 26 -50 37 -85 30z"/>
<path d="M845 573 c-59 -11 -95 -54 -95 -113 0 -84 79 -137 152 -103 107 51
57 236 -57 216z m59 -86 c22 -62 -40 -120 -80 -75 -26 28 -27 61 -4 91 16 21
25 24 48 18 17 -5 31 -18 36 -34z"/>
<path d="M1760 571 c-52 -12 -81 -45 -87 -101 -6 -49 19 -94 61 -112 51 -21
75 -17 113 18 28 27 34 39 31 65 -3 33 -4 33 -56 34 -47 0 -52 -2 -50 -20 2
-13 13 -22 33 -25 l30 -5 -23 -17 c-54 -38 -114 32 -77 89 16 24 59 32 70 13
9 -15 65 -12 65 3 0 32 -67 67 -110 58z"/>
<path d="M539 520 c0 -27 0 -72 0 -100 0 -27 0 -54 0 -59 1 -5 12 -11 26 -13
24 -5 25 -3 25 43 l0 49 40 0 40 0 0 -44 c0 -27 5 -46 13 -49 34 -13 40 16 38
166 -1 54 -2 57 -25 57 -22 0 -25 -5 -28 -42 -3 -38 -6 -43 -28 -44 -41 -2
-50 6 -50 47 0 35 -3 39 -25 39 -23 0 -25 -4 -26 -50z"/>
<path d="M991 461 c2 -111 7 -125 39 -112 9 4 15 19 15 41 0 28 4 35 20 36 40
2 65 16 79 42 12 23 12 33 1 58 -15 37 -31 44 -101 44 l-54 0 1 -109z m101 59
c5 0 8 -10 6 -22 -2 -17 -10 -23 -29 -24 -20 -1 -26 3 -24 15 2 9 4 22 4 30 1
8 7 11 17 7 9 -3 20 -6 26 -6z"/>
<path d="M1180 461 c0 -78 4 -110 13 -113 25 -10 37 4 37 43 0 32 3 40 18 38
59 -6 97 27 88 80 -7 46 -31 60 -98 61 l-58 0 0 -109z m104 46 c12 -19 7 -26
-28 -33 -22 -4 -26 -1 -26 20 0 37 34 45 54 13z"/>
<path d="M1369 560 c0 -5 -2 -53 -2 -106 -2 -78 1 -98 14 -104 30 -17 37 3 36
113 -1 105 -1 107 -24 107 -13 0 -23 -4 -24 -10z"/>
<path d="M1459 563 c-6 -35 -3 -209 4 -214 5 -4 17 -4 27 -2 14 4 17 15 16 60
0 30 2 57 6 59 3 2 21 -21 38 -51 36 -63 62 -82 82 -62 11 12 15 97 9 205 -1
6 -12 12 -26 12 -24 0 -25 -2 -25 -66 l0 -67 -25 37 c-14 20 -32 50 -40 66
-11 21 -23 30 -40 30 -14 0 -26 -3 -26 -7z"/>
<path d="M426 264 c-5 -13 -9 -14 -21 -4 -10 8 -15 9 -15 2 0 -6 5 -14 10 -17
6 -3 10 -16 10 -28 1 -15 5 -9 15 18 13 37 14 64 1 29z"/>
<path d="M493 273 c-7 -2 -13 -11 -13 -20 0 -13 2 -12 15 1 19 19 45 10 45
-15 0 -25 -26 -35 -45 -19 -13 11 -14 10 -9 -4 10 -26 58 -17 62 12 6 38 -21
59 -55 45z"/>
<path d="M640 275 c-1 -5 -1 -22 0 -37 1 -20 -4 -27 -22 -31 -21 -4 -21 -4 -2
-6 29 -2 42 18 33 54 -3 17 -8 26 -9 20z"/>
<path d="M695 271 c-3 -5 -1 -12 5 -16 5 -3 10 1 10 9 0 18 -6 21 -15 7z"/>
<path d="M855 262 c3 -7 5 -16 5 -18 0 -2 5 -4 12 -4 6 0 8 3 5 7 -4 3 -2 12
4 19 8 10 6 12 -10 11 -14 -1 -20 -6 -16 -15z"/>
<path d="M951 255 c-6 -16 -13 -34 -15 -40 -2 -5 9 -10 25 -10 32 0 34 6 15
50 l-14 30 -11 -30z m16 -27 c-3 -8 -6 -5 -6 6 -1 11 2 17 5 13 3 -3 4 -12 1
-19z"/>
<path d="M1040 260 c-17 -32 -3 -60 30 -60 16 0 30 7 34 16 9 23 8 24 -21 23
-17 -1 -21 -3 -10 -6 23 -6 22 -23 -2 -23 -25 0 -37 31 -17 46 18 13 21 24 6
24 -5 0 -14 -9 -20 -20z"/>
<path d="M1080 271 c0 -5 5 -13 10 -16 6 -3 10 -2 10 4 0 5 -4 13 -10 16 -5 3
-10 2 -10 -4z"/>
<path d="M1149 263 c0 -10 -2 -28 -3 -40 -2 -13 1 -23 6 -23 4 0 8 18 8 40 0
39 -9 58 -11 23z"/>
<path d="M1220 238 c0 -26 4 -38 8 -30 8 12 4 72 -4 72 -2 0 -4 -19 -4 -42z"/>
<path d="M1275 245 c2 -43 15 -60 15 -19 l1 29 15 -27 c20 -38 34 -35 34 7 0
19 -5 35 -11 35 -6 0 -9 -7 -6 -15 10 -25 -10 -25 -21 0 -16 35 -28 31 -27
-10z"/>
<path d="M1380 238 c0 -37 13 -57 25 -38 3 5 0 10 -7 10 -8 1 -6 6 6 15 17 13
18 15 3 15 -22 0 -22 9 1 26 16 12 15 13 -5 11 -20 -1 -23 -7 -23 -39z"/>
<path d="M1520 242 c0 -27 4 -41 10 -37 6 4 8 11 5 16 -4 5 3 9 14 9 11 0 21
-8 23 -17 3 -16 4 -15 9 2 3 11 2 31 -2 45 -7 24 -7 24 -8 3 -1 -16 -7 -23
-22 -23 -11 0 -18 4 -15 8 2 4 1 14 -5 22 -6 11 -9 2 -9 -28z"/>
<path d="M1635 272 c-5 -4 -11 -22 -11 -39 -1 -27 2 -33 20 -33 17 0 18 2 6
10 -13 9 -13 11 0 20 10 6 11 10 3 10 -7 0 -13 7 -13 15 0 9 6 12 15 9 8 -4
15 -1 15 5 0 12 -20 14 -35 3z"/>
<path d="M1711 236 c0 -31 2 -36 9 -21 7 18 8 19 15 3 12 -29 20 -21 20 20 0
31 -3 37 -22 38 -20 1 -23 -3 -22 -40z m30 11 c-13 -13 -26 -3 -16 12 3 6 11
8 17 5 6 -4 6 -10 -1 -17z"/>
<path d="M1814 272 c-6 -4 -11 -22 -12 -39 -1 -28 3 -33 21 -32 17 1 18 2 5 6
-10 2 -18 9 -18 14 0 5 8 9 18 9 16 1 16 1 -1 11 -9 6 -15 15 -12 20 4 5 11 7
16 4 5 -4 9 -1 9 4 0 13 -10 14 -26 3z"/>
<path d="M597 263 c-10 -9 -9 -23 1 -23 5 0 9 7 9 15 0 17 -1 18 -10 8z"/>
<path d="M723 246 c-24 -11 -39 -36 -23 -36 6 0 10 6 10 13 0 7 8 3 17 -8 11
-14 14 -15 10 -4 -3 9 0 22 6 28 15 15 6 19 -20 7z"/>
<path d="M861 214 c0 -11 3 -14 6 -6 3 7 2 16 -1 19 -3 4 -6 -2 -5 -13z"/>
</g>
</svg>
